<?xml version="1.0" encoding="UTF-8" standalone="no"?>
<!-- Created with Inkscape (http://www.inkscape.org/) -->

<svg
   width="150mm"
   height="150mm"
   viewBox="0 0 150 150"
   version="1.1"
   id="svg5"
   inkscape:version="1.2.2 (b0a8486541, 2022-12-01)"
   sodipodi:docname="bizarre_bits_logo.svg"
   inkscape:export-filename="bizarre_bits_logo_plain.svg"
   inkscape:export-xdpi="43.349335"
   inkscape:export-ydpi="43.349335"
   xmlns:inkscape="http://www.inkscape.org/namespaces/inkscape"
   xmlns:sodipodi="http://sodipodi.sourceforge.net/DTD/sodipodi-0.dtd"
   xmlns="http://www.w3.org/2000/svg"
   xmlns:svg="http://www.w3.org/2000/svg">
  <sodipodi:namedview
     id="namedview7"
     pagecolor="#505050"
     bordercolor="#eeeeee"
     borderopacity="1"
     inkscape:showpageshadow="0"
     inkscape:pageopacity="0"
     inkscape:pagecheckerboard="0"
     inkscape:deskcolor="#505050"
     inkscape:document-units="mm"
     showgrid="false"
     inkscape:zoom="0.98520767"
     inkscape:cx="122.30924"
     inkscape:cy="201.98787"
     inkscape:window-width="1920"
     inkscape:window-height="1011"
     inkscape:window-x="0"
     inkscape:window-y="0"
     inkscape:window-maximized="1"
     inkscape:current-layer="g205" />
  <defs
     id="defs2" />
  <g
     inkscape:label="Layer 1"
     inkscape:groupmode="layer"
     id="layer1"
     transform="translate(-37.835938,-27.672729)">
    <g
       id="g1011"
       style="display:none;stroke:#f2a50c;stroke-opacity:1"
       inkscape:label="byte bu">
      <rect
         style="fill:none;fill-opacity:0.436482;stroke:#f2a50c;stroke-width:5;stroke-dasharray:none;stroke-opacity:1;paint-order:fill markers stroke"
         id="rect234"
         width="20"
         height="20"
         x="2.5"
         y="2.5" />
      <rect
         style="fill:none;fill-opacity:0.436482;stroke:#f2a50c;stroke-width:5;stroke-dasharray:none;stroke-opacity:1;paint-order:fill markers stroke"
         id="rect234-3"
         width="20"
         height="20"
         x="37.5"
         y="2.5" />
      <rect
         style="fill:none;fill-opacity:0.436482;stroke:#f2a50c;stroke-width:5;stroke-dasharray:none;stroke-opacity:1;paint-order:fill markers stroke"
         id="rect234-6"
         width="20"
         height="20"
         x="2.5"
         y="37.5" />
      <rect
         style="fill:none;fill-opacity:0.436482;stroke:#f2a50c;stroke-width:5;stroke-dasharray:none;stroke-opacity:1;paint-order:fill markers stroke"
         id="rect234-3-7"
         width="20"
         height="20"
         x="37.5"
         y="37.5" />
      <rect
         style="fill:none;fill-opacity:0.436482;stroke:#f2a50c;stroke-width:5;stroke-dasharray:none;stroke-opacity:1;paint-order:fill markers stroke"
         id="rect234-5"
         width="20"
         height="20"
         x="72.5"
         y="2.5" />
      <rect
         style="fill:none;fill-opacity:0.436482;stroke:#f2a50c;stroke-width:5;stroke-dasharray:none;stroke-opacity:1;paint-order:fill markers stroke"
         id="rect234-3-3"
         width="20"
         height="20"
         x="107.5"
         y="2.5" />
      <rect
         style="fill:none;fill-opacity:0.436482;stroke:#f2a50c;stroke-width:5;stroke-dasharray:none;stroke-opacity:1;paint-order:fill markers stroke"
         id="rect234-6-5"
         width="20"
         height="20"
         x="72.5"
         y="37.5" />
      <rect
         style="fill:none;fill-opacity:0.436482;stroke:#f2a50c;stroke-width:5;stroke-dasharray:none;stroke-opacity:1;paint-order:fill markers stroke"
         id="rect234-3-7-6"
         width="20"
         height="20"
         x="116.60049"
         y="-15.900488"
         transform="rotate(24.679745)" />
    </g>
    <rect
       style="fill:#1a1a1a;fill-opacity:1;stroke:none;stroke-width:0.329999;stroke-dasharray:none;stroke-opacity:1;paint-order:fill markers stroke"
       id="rect5705"
       width="150"
       height="150"
       x="37.835938"
       y="27.672729" />
    <g
       id="g2768"
       inkscape:label="logo_bu"
       style="display:none;fill:#e3e3e3;fill-opacity:1"
       transform="translate(45.921824,36.347677)">
      <text
         xml:space="preserve"
         style="font-size:36.2844px;font-family:Montserrat;-inkscape-font-specification:Montserrat;letter-spacing:0.0337723px;fill:#e3e3e3;fill-opacity:1;stroke:#c600ba;stroke-width:4.99998;stroke-dasharray:none;stroke-opacity:1;paint-order:fill markers stroke"
         x="-3.2616081"
         y="87.004395"
         id="text1067"><tspan
           sodipodi:role="line"
           id="tspan1065"
           style="font-style:normal;font-variant:normal;font-weight:bold;font-stretch:normal;font-family:Montserrat;-inkscape-font-specification:'Montserrat Bold';fill:#e3e3e3;fill-opacity:1;stroke:none;stroke-width:5"
           x="-3.2616081"
           y="87.004395"
           dy="10.63692">Bizarre</tspan><tspan
           sodipodi:role="line"
           style="font-style:normal;font-variant:normal;font-weight:bold;font-stretch:normal;font-family:Montserrat;-inkscape-font-specification:'Montserrat Bold';fill:#e3e3e3;fill-opacity:1;stroke:none;stroke-width:5"
           x="-3.2616081"
           y="132.35989"
           id="tspan1737">Bits</tspan></text>
      <g
         id="g2701"
         style="fill:#e3e3e3;fill-opacity:1;stroke:#f2a50c;stroke-width:5;stroke-dasharray:none;stroke-opacity:1"
         inkscape:label="byte">
        <path
           id="rect2685"
           style="color:#000000;fill:#e3e3e3;fill-opacity:1;stroke:none;-inkscape-stroke:none;paint-order:fill markers stroke"
           d="M 1.0636328e-4,-6.7507813e-5 V 2.5000383 24.999957 H 25.000131 V -6.7507813e-5 Z m 34.99993063672,0 V 2.5000383 24.999957 H 60.000062 V -6.7507813e-5 Z m 34.999931,0 V 2.5000383 24.999957 H 94.999992 V -6.7507813e-5 Z m 34.999932,0 V 2.5000383 24.999957 h 25.00002 V -6.7507813e-5 Z M 111.36127,30.922076 l -1.0449,2.273246 -9.39426,20.443197 22.71644,10.439673 10.43968,-22.71696 z M 1.0636328e-4,34.999863 v 2.500106 22.499919 H 25.000131 V 34.999863 Z m 34.99993063672,0 v 2.500106 22.499919 H 60.000062 V 34.999863 Z m 34.999931,0 v 2.500106 22.499919 H 94.999992 V 34.999863 Z m 43.816442,2.552816 0.0326,0.01499 -0.003,5.17e-4 -0.0408,0.0098 z m 13.61778,6.257499 0.0129,0.0062 -0.005,0.01034 c -0.003,-0.0051 -0.005,-0.01159 -0.008,-0.01654 z m -19.86132,7.328752 c 0.0132,0.02827 0.0294,0.05404 0.0496,0.07648 l -0.0698,-0.03204 z m 13.62862,6.268351 -0.0181,0.03979 -0.0222,-0.01033 c 0.0143,-0.0088 0.0272,-0.01921 0.0403,-0.02946 z" />
      </g>
    </g>
    <g
       id="g205"
       inkscape:label="logo"
       style="fill:#e3e3e3;fill-opacity:1"
       transform="translate(45.921824,36.347677)">
      <path
         id="path207"
         style="font-weight:bold;font-size:36.2844px;font-family:Montserrat;-inkscape-font-specification:'Montserrat Bold';letter-spacing:0.0337723px;fill:#e3e3e3;fill-opacity:1;stroke:none;stroke-width:5;paint-order:fill markers stroke"
         d="M -7.4639323e-5,-2.5311198e-5 V 2.5000805 24.999999 H 24.99995 V -2.5311198e-5 Z m 34.999930639323,0 V 2.5000805 24.999999 H 59.999881 V -2.5311198e-5 Z m 34.999931,0 V 2.5000805 24.999999 H 94.999811 V -2.5311198e-5 Z m 34.999933,0 V 2.5000805 24.999999 h 25.00002 V -2.5311198e-5 Z M 111.36109,30.922118 l -1.0449,2.273246 -9.39426,20.443197 22.71644,10.439673 10.43968,-22.71696 z M -7.4639323e-5,34.999906 V 37.500011 59.99993 H 24.99995 V 34.999906 Z m 34.999930639323,0 V 37.500011 59.99993 H 59.999881 V 34.999906 Z m 34.999931,0 V 37.500011 59.99993 H 94.999811 V 34.999906 Z m 43.816443,2.552815 0.0326,0.01499 -0.003,5.17e-4 -0.0408,0.0098 z m 13.61778,6.257499 0.0129,0.0062 -0.005,0.01033 c -0.003,-0.0051 -0.005,-0.01159 -0.008,-0.01654 z m -19.86132,7.328752 c 0.0132,0.02827 0.0294,0.05404 0.0496,0.07648 l -0.0698,-0.03204 z m 13.62862,6.268351 -0.0181,0.03979 -0.0222,-0.01033 c 0.0143,-0.0088 0.0272,-0.01921 0.0403,-0.02946 z M 29.972256,69.08568 c -2.104491,0 -3.519682,1.378465 -3.519682,3.156397 0,1.777931 1.415191,3.156913 3.519682,3.156913 2.104491,0 3.519682,-1.37865 3.519682,-3.265434 0,-1.741648 -1.415191,-3.047876 -3.519682,-3.047876 z M -0.25018857,72.242077 V 97.64156 H 12.884927 c 6.676316,0 10.159587,-2.539924 10.159587,-6.930326 0,-3.193021 -1.813983,-5.370545 -4.644161,-6.277653 2.068207,-1.08853 3.374471,-3.047871 3.374471,-5.587773 0,-3.954992 -3.265676,-6.603731 -9.615434,-6.603731 z M 5.5918321,76.66868 h 5.8415039 c 2.866462,0 4.42712,0.979891 4.42712,2.975529 0,1.995638 -1.560658,3.011702 -4.42712,3.011702 H 5.5918321 Z m 60.1157109,1.161169 c -3.120453,0 -6.277316,0.83457 -8.418091,2.358513 l 2.031917,3.955314 c 1.41509,-1.124814 3.55574,-1.81436 5.623946,-1.81436 3.047884,0 4.499467,1.415228 4.499467,3.846277 h -4.499467 c -5.950629,0 -8.3814,2.394494 -8.3814,5.841504 0,3.374444 2.721269,5.914368 7.293095,5.914368 2.866462,0 4.898296,-0.94335 5.950541,-2.721281 v 2.431376 h 5.297351 V 86.502188 c 0,-5.914345 -3.446729,-8.672339 -9.397359,-8.672339 z m 26.666589,0 c -3.011599,0 -5.333964,0.979707 -6.712769,2.866492 v -2.57607 H 80.254975 V 97.64156 h 5.660636 v -9.216492 c 0,-3.737286 2.067862,-5.442562 5.188314,-5.442562 0.435413,0 0.79851,0.03606 1.270207,0.07235 z m 15.527218,0 c -3.0116,0 -5.33396,0.979707 -6.71277,2.866492 v -2.57607 H 95.782193 V 97.64156 h 5.660637 v -9.216492 c 0,-3.737286 2.06787,-5.442562 5.18831,-5.442562 0.43541,0 0.79852,0.03606 1.27021,0.07235 z m 12.18892,0 c -5.95063,0 -10.41384,4.209289 -10.41384,10.051066 0,5.805494 4.39049,10.05055 11.13938,10.05055 3.51957,0 6.2411,-1.08819 8.05532,-3.156397 l -3.0117,-3.26595 c -1.34253,1.26995 -2.8302,1.886706 -4.89841,1.886706 -2.97532,0 -5.04351,-1.487573 -5.58778,-3.918624 h 14.76758 c 0.0363,-0.471695 0.10904,-1.088525 0.10904,-1.523938 0,-6.277187 -4.42668,-10.123413 -10.15959,-10.123413 z M 27.141938,78.120271 V 97.64156 h 5.660636 V 78.120271 Z m 9.867098,0 v 4.354256 h 9.687781 L 36.755305,94.230399 V 97.64156 H 54.171813 V 93.287304 H 43.903189 l 9.942029,-11.756389 v -3.410644 z m 83.117404,3.991488 c 2.53991,0 4.39026,1.596501 4.78937,4.063834 h -9.61491 c 0.39913,-2.503618 2.24937,-4.063834 4.82554,-4.063834 z M 5.5918321,86.937304 h 6.8574629 c 3.047884,0 4.680851,1.016137 4.680851,3.156913 0,2.17706 -1.632967,3.120223 -4.680851,3.120223 H 5.5918321 Z M 65.562332,89.4772 h 3.88245 v 1.995744 c -0.653117,1.777932 -2.286087,2.648934 -4.172872,2.648934 -1.995638,0 -3.193087,-0.943425 -3.193087,-2.358512 0,-1.306237 0.834752,-2.286166 3.483509,-2.286166 z m -35.590076,14.32677 c -2.104491,0 -3.519682,1.37898 -3.519682,3.15692 0,1.77793 1.415191,3.15691 3.519682,3.15691 2.104491,0 3.519682,-1.37916 3.519682,-3.26595 0,-1.74165 -1.415191,-3.04788 -3.519682,-3.04788 z m -30.22244457,3.15692 v 25.39896 H 12.884927 c 6.676316,0 10.159587,-2.53993 10.159587,-6.93032 0,-3.19303 -1.813983,-5.37003 -4.644161,-6.27714 2.068207,-1.08853 3.374471,-3.04787 3.374471,-5.58777 0,-3.955 -3.265676,-6.60373 -9.615434,-6.60373 z M 38.787222,108.521 v 4.7532 h -3.011703 v 4.35425 h 3.011703 v 8.01864 c 0,4.64438 2.684985,7.00319 7.293095,7.00319 1.741648,0 3.446889,-0.3995 4.607987,-1.23404 l -1.523938,-3.99097 c -0.616833,0.47169 -1.451625,0.72554 -2.286165,0.72554 -1.523943,0 -2.430859,-0.90698 -2.430859,-2.57607 v -7.94629 h 4.862235 v -4.35425 h -4.862235 v -4.7532 z m -33.1953899,2.86649 h 5.8415039 c 2.866462,0 4.42712,0.97989 4.42712,2.97553 0,1.99564 -1.560658,3.01119 -4.42712,3.01119 H 5.5918321 Z m 55.9428389,1.16117 c -5.696641,0 -9.034591,2.6123 -9.034591,6.31331 0,7.80112 11.792562,4.5357 11.792562,7.72873 0,1.08853 -0.980073,1.77767 -3.592546,1.77767 -2.394764,0 -5.043468,-0.76189 -6.785115,-1.88671 l -1.886707,4.06383 c 1.814216,1.19738 5.152391,2.10479 8.454264,2.10479 5.841778,0 9.215975,-2.57637 9.215975,-6.20479 0,-7.69229 -11.792045,-4.46291 -11.792045,-7.80108 0,-1.01596 1.088299,-1.81436 3.628203,-1.81436 1.777932,0 3.700877,0.36306 5.623946,1.45159 l 1.887223,-4.02766 c -1.8505,-1.08853 -4.826129,-1.70532 -7.511169,-1.70532 z m -34.392733,0.29042 v 19.52077 h 5.660636 v -19.52077 z m -21.5501059,8.81703 h 6.8574629 c 3.047884,0 4.680851,1.01562 4.680851,3.1564 0,2.17706 -1.632967,3.12074 -4.680851,3.12074 H 5.5918321 Z" />
    </g>
  </g>
</svg>
